/* XPM */
static char *b17d094193ee4d5a81ab745b9f1cde93grgHAMCXcPCevcZs[] = {
/* columns rows colors chars-per-pixel */
"64 64 6 1 ",
"  c black",
". c #9C3232",
"X c #AD3C3C",
"o c #C04B4B",
"O c #C79FA0",
"+ c #D9B4B6",
/* pixels */
"ooooooooooooooooooXXOOooooooooooooooooooXOOooooooooooooooooooXX ",
"ooXXXXXXXXXXXXXXXX..++oXXXXXXXXXXXXXXXXX.++ooXXXXXXXXXXXXXXXX.. ",
"ooXXXXXXXXXXXXXXXX..++oXXXXXXXXXXXXXXXXX.++ooXXXXXXXXXXXXXXXX.. ",
"ooXXXXXXXXXXXXXXXX..++oXXXXXXXXXXXXXXXXX.++ooXXXXXXXXXXXXXXXX.. ",
"ooXXXXXXXXXXXXXXXX..++oXXXXXXXXXXXXXXXXX.++ooXXXXXXXXXXXXXXXX.. ",
"XX..................OOX..................OOXX.................. ",
"XX..................OOX..................OOXX.................. ",
"OO+++++OOOOOO+++++OOOOO++++++OOOOO++++++OOOOO+++++OOOOOO+++++OO ",
"oooooooXXOOooooooooooooooooooXXOooooooooooooooooooXXOOooooooooo ",
"XXXXXXX..++ooXXXXXXXXXXXXXXXX..+ooXXXXXXXXXXXXXXXX..++ooXXXXXXX ",
"XXXXXXX..++ooXXXXXXXXXXXXXXXX..+ooXXXXXXXXXXXXXXXX..++ooXXXXXXX ",
"XXXXXXX..++ooXXXXXXXXXXXXXXXX..+ooXXXXXXXXXXXXXXXX..++ooXXXXXXX ",
"XXXXXXX..++ooXXXXXXXXXXXXXXXX..+ooXXXXXXXXXXXXXXXX..++ooXXXXXXX ",
".........OOXX..................OXX..................OOXX....... ",
".........OOXX..................OXX..................OOXX....... ",
"OO+++++OOOOOO+++++OOOOO++++++OOOOO++++++OOOOO+++++OOOOOO+++++OO ",
"ooooooooooooooooooXXOOooooooooooooooooooXOOooooooooooooooooooXX ",
"ooXXXXXXXXXXXXXXXX..++oXXXXXXXXXXXXXXXXX.++ooXXXXXXXXXXXXXXXX.. ",
"ooXXXXXXXXXXXXXXXX..++oXXXXXXXXXXXXXXXXX.++ooXXXXXXXXXXXXXXXX.. ",
"ooXXXXXXXXXXXXXXXX..++oXXXXXXXXXXXXXXXXX.++ooXXXXXXXXXXXXXXXX.. ",
"ooXXXXXXXXXXXXXXXX..++oXXXXXXXXXXXXXXXXX.++ooXXXXXXXXXXXXXXXX.. ",
"XX..................OOX..................OOXX.................. ",
"XX..................OOX..................OOXX.................. ",
"OO+++++OOOOOO+++++OOOOO++++++OOOOO++++++OOOOO+++++OOOOOO+++++OO ",
"oooooooXXOOooooooooooooooooooXXOooooooooooooooooooXXOOooooooooo ",
"oooooooXXOOooooooooooooooooooXXOooooooooooooooooooXXOOooooooooo ",
"XXXXXXX..++ooXXXXXXXXXXXXXXXX..+ooXXXXXXXXXXXXXXXX..++ooXXXXXXX ",
"XXXXXXX..++ooXXXXXXXXXXXXXXXX..+ooXXXXXXXXXXXXXXXX..++ooXXXXXXX ",
"XXXXXXX..++ooXXXXXXXXXXXXXXXX..+ooXXXXXXXXXXXXXXXX..++ooXXXXXXX ",
"XXXXXXX..++ooXXXXXXXXXXXXXXXX..+ooXXXXXXXXXXXXXXXX..++ooXXXXXXX ",
".........OOXX..................OXX..................OOXX....... ",
"OO+++++OOOOOO+++++OOOOO++++++OOOOO++++++OOOOO+++++OOOOOO+++++OO ",
"ooooooooooooooooooXXOOooooooooooooooooooXOOooooooooooooooooooXX ",
"ooooooooooooooooooXXOOooooooooooooooooooXOOooooooooooooooooooXX ",
"ooXXXXXXXXXXXXXXXX..++oXXXXXXXXXXXXXXXXX.++ooXXXXXXXXXXXXXXXX.. ",
"ooXXXXXXXXXXXXXXXX..++oXXXXXXXXXXXXXXXXX.++ooXXXXXXXXXXXXXXXX.. ",
"ooXXXXXXXXXXXXXXXX..++oXXXXXXXXXXXXXXXXX.++ooXXXXXXXXXXXXXXXX.. ",
"ooXXXXXXXXXXXXXXXX..++oXXXXXXXXXXXXXXXXX.++ooXXXXXXXXXXXXXXXX.. ",
"XX..................OOX..................OOXX.................. ",
"XX..................OOX..................OOXX.................. ",
"OO+++++OOOOOO+++++OOOOO++++++OOOOO++++++OOOOO+++++OOOOOO+++++OO ",
"oooooooXXOOooooooooooooooooooXXOooooooooooooooooooXXOOooooooooo ",
"XXXXXXX..++ooXXXXXXXXXXXXXXXX..+ooXXXXXXXXXXXXXXXX..++ooXXXXXXX ",
"XXXXXXX..++ooXXXXXXXXXXXXXXXX..+ooXXXXXXXXXXXXXXXX..++ooXXXXXXX ",
"XXXXXXX..++ooXXXXXXXXXXXXXXXX..+ooXXXXXXXXXXXXXXXX..++ooXXXXXXX ",
"XXXXXXX..++ooXXXXXXXXXXXXXXXX..+ooXXXXXXXXXXXXXXXX..++ooXXXXXXX ",
".........OOXX..................OXX..................OOXX....... ",
".........OOXX..................OXX..................OOXX....... ",
"OO+++++OOOOOO+++++OOOOO++++++OOOOO++++++OOOOO+++++OOOOOO+++++OO ",
"ooooooooooooooooooXXOOooooooooooooooooooXOOooooooooooooooooooXX ",
"ooXXXXXXXXXXXXXXXX..++oXXXXXXXXXXXXXXXXX.++ooXXXXXXXXXXXXXXXX.. ",
"ooXXXXXXXXXXXXXXXX..++oXXXXXXXXXXXXXXXXX.++ooXXXXXXXXXXXXXXXX.. ",
"ooXXXXXXXXXXXXXXXX..++oXXXXXXXXXXXXXXXXX.++ooXXXXXXXXXXXXXXXX.. ",
"ooXXXXXXXXXXXXXXXX..++oXXXXXXXXXXXXXXXXX.++ooXXXXXXXXXXXXXXXX.. ",
"XX..................OOX..................OOXX.................. ",
"XX..................OOX..................OOXX.................. ",
"OO+++++OOOOOO+++++OOOOO++++++OOOOO++++++OOOOO+++++OOOOOO+++++OO ",
"oooooooXXOOooooooooooooooooooXXOooooooooooooooooooXXOOooooooooo ",
"oooooooXXOOooooooooooooooooooXXOooooooooooooooooooXXOOooooooooo ",
"XXXXXXX..++ooXXXXXXXXXXXXXXXX..+ooXXXXXXXXXXXXXXXX..++ooXXXXXXX ",
"XXXXXXX..++ooXXXXXXXXXXXXXXXX..+ooXXXXXXXXXXXXXXXX..++ooXXXXXXX ",
"XXXXXXX..++ooXXXXXXXXXXXXXXXX..+ooXXXXXXXXXXXXXXXX..++ooXXXXXXX ",
"XXXXXXX..++ooXXXXXXXXXXXXXXXX..+ooXXXXXXXXXXXXXXXX..++ooXXXXXXX ",
".........OOXX..................OXX..................OOXX....... "
};
