/* XPM */
static char *_3514ef89541426bfbc3da741847ea85OmPDuVUfQjY8mqt6[] = {
/* columns rows colors chars-per-pixel */
"64 64 3 1 ",
"  c black",
". c #1A1E38",
"X c #34495E",
/* pixels */
" ..............  ..............  ..............  .............. ",
".XXXXXXXXXXXXXX .XXXXXXXXXXXXXX .XXXXXXXXXXXXXX .XXXXXXXXXXXXXX ",
".X XXXXXXXXXX X .X XXXXXXXXXX X .X XXXXXXXXXX X .X XXXXXXXXXX X ",
".XXXXXXXXXXXXXX .XXXXXXXXXXXXXX .XXXXXXXXXXXXXX .XXXXXXXXXXXXXX ",
".XXXXXXXXXXXXXX .XXXXXXXXXXXXXX .XXXXXXXXXXXXXX .XXXXXXXXXXXXXX ",
".XXXXXXXXXXXXXX .XXXXXXXXXXXXXX .XXXXXXXXXXXXXX .XXXXXXXXXXXXXX ",
".XXXXXXXXXXXXXX .XXXXXXXXXXXXXX .XXXXXXXXXXXXXX .XXXXXXXXXXXXXX ",
".XXXXXXXXXXXXXX .XXXXXXXXXXXXXX .XXXXXXXXXXXXXX .XXXXXXXXXXXXXX ",
".XXXXXXXXXXXXXX .XXXXXXXXXXXXXX .XXXXXXXXXXXXXX .XXXXXXXXXXXXXX ",
".XXXXXXXXXXXXXX .XXXXXXXXXXXXXX .XXXXXXXXXXXXXX .XXXXXXXXXXXXXX ",
".XXXXXXXXXXXXXX .XXXXXXXXXXXXXX .XXXXXXXXXXXXXX .XXXXXXXXXXXXXX ",
".XXXXXXXXXXXXXX .XXXXXXXXXXXXXX .XXXXXXXXXXXXXX .XXXXXXXXXXXXXX ",
".XXXXXXXXXXXXXX .XXXXXXXXXXXXXX .XXXXXXXXXXXXXX .XXXXXXXXXXXXXX ",
".X XXXXXXXXXX X .X XXXXXXXXXX X .X XXXXXXXXXX X .X XXXXXXXXXX X ",
".XXXXXXXXXXXXXX .XXXXXXXXXXXXXX .XXXXXXXXXXXXXX .XXXXXXXXXXXXXX ",
" ..............  ..............  ..............  .............. ",
" ..............  ..............  ..............  .............. ",
".XXXXXXXXXXXXXX .XXXXXXXXXXXXXX .XXXXXXXXXXXXXX .XXXXXXXXXXXXXX ",
".X XXXXXXXXXX X .X XXXXXXXXXX X .X XXXXXXXXXX X .X XXXXXXXXXX X ",
".XXXXXXXXXXXXXX .XXXXXXXXXXXXXX .XXXXXXXXXXXXXX .XXXXXXXXXXXXXX ",
".XXXXXXXXXXXXXX .XXXXXXXXXXXXXX .XXXXXXXXXXXXXX .XXXXXXXXXXXXXX ",
".XXXXXXXXXXXXXX .XXXXXXXXXXXXXX .XXXXXXXXXXXXXX .XXXXXXXXXXXXXX ",
".XXXXXXXXXXXXXX .XXXXXXXXXXXXXX .XXXXXXXXXXXXXX .XXXXXXXXXXXXXX ",
".XXXXXXXXXXXXXX .XXXXXXXXXXXXXX .XXXXXXXXXXXXXX .XXXXXXXXXXXXXX ",
".XXXXXXXXXXXXXX .XXXXXXXXXXXXXX .XXXXXXXXXXXXXX .XXXXXXXXXXXXXX ",
".XXXXXXXXXXXXXX .XXXXXXXXXXXXXX .XXXXXXXXXXXXXX .XXXXXXXXXXXXXX ",
".XXXXXXXXXXXXXX .XXXXXXXXXXXXXX .XXXXXXXXXXXXXX .XXXXXXXXXXXXXX ",
".XXXXXXXXXXXXXX .XXXXXXXXXXXXXX .XXXXXXXXXXXXXX .XXXXXXXXXXXXXX ",
".XXXXXXXXXXXXXX .XXXXXXXXXXXXXX .XXXXXXXXXXXXXX .XXXXXXXXXXXXXX ",
".X XXXXXXXXXX X .X XXXXXXXXXX X .X XXXXXXXXXX X .X XXXXXXXXXX X ",
".XXXXXXXXXXXXXX .XXXXXXXXXXXXXX .XXXXXXXXXXXXXX .XXXXXXXXXXXXXX ",
"                                                                ",
" ..............  ..............  ..............  .............. ",
".XXXXXXXXXXXXXX .XXXXXXXXXXXXXX .XXXXXXXXXXXXXX .XXXXXXXXXXXXXX ",
".X XXXXXXXXXX X .X XXXXXXXXXX X .X XXXXXXXXXX X .X XXXXXXXXXX X ",
".XXXXXXXXXXXXXX .XXXXXXXXXXXXXX .XXXXXXXXXXXXXX .XXXXXXXXXXXXXX ",
".XXXXXXXXXXXXXX .XXXXXXXXXXXXXX .XXXXXXXXXXXXXX .XXXXXXXXXXXXXX ",
".XXXXXXXXXXXXXX .XXXXXXXXXXXXXX .XXXXXXXXXXXXXX .XXXXXXXXXXXXXX ",
".XXXXXXXXXXXXXX .XXXXXXXXXXXXXX .XXXXXXXXXXXXXX .XXXXXXXXXXXXXX ",
".XXXXXXXXXXXXXX .XXXXXXXXXXXXXX .XXXXXXXXXXXXXX .XXXXXXXXXXXXXX ",
".XXXXXXXXXXXXXX .XXXXXXXXXXXXXX .XXXXXXXXXXXXXX .XXXXXXXXXXXXXX ",
".XXXXXXXXXXXXXX .XXXXXXXXXXXXXX .XXXXXXXXXXXXXX .XXXXXXXXXXXXXX ",
".XXXXXXXXXXXXXX .XXXXXXXXXXXXXX .XXXXXXXXXXXXXX .XXXXXXXXXXXXXX ",
".XXXXXXXXXXXXXX .XXXXXXXXXXXXXX .XXXXXXXXXXXXXX .XXXXXXXXXXXXXX ",
".XXXXXXXXXXXXXX .XXXXXXXXXXXXXX .XXXXXXXXXXXXXX .XXXXXXXXXXXXXX ",
".X XXXXXXXXXX X .X XXXXXXXXXX X .X XXXXXXXXXX X .X XXXXXXXXXX X ",
".XXXXXXXXXXXXXX .XXXXXXXXXXXXXX .XXXXXXXXXXXXXX .XXXXXXXXXXXXXX ",
"                                                                ",
" ..............  ..............  ..............  .............. ",
".XXXXXXXXXXXXXX .XXXXXXXXXXXXXX .XXXXXXXXXXXXXX .XXXXXXXXXXXXXX ",
".X XXXXXXXXXX X .X XXXXXXXXXX X .X XXXXXXXXXX X .X XXXXXXXXXX X ",
".XXXXXXXXXXXXXX .XXXXXXXXXXXXXX .XXXXXXXXXXXXXX .XXXXXXXXXXXXXX ",
".XXXXXXXXXXXXXX .XXXXXXXXXXXXXX .XXXXXXXXXXXXXX .XXXXXXXXXXXXXX ",
".XXXXXXXXXXXXXX .XXXXXXXXXXXXXX .XXXXXXXXXXXXXX .XXXXXXXXXXXXXX ",
".XXXXXXXXXXXXXX .XXXXXXXXXXXXXX .XXXXXXXXXXXXXX .XXXXXXXXXXXXXX ",
".XXXXXXXXXXXXXX .XXXXXXXXXXXXXX .XXXXXXXXXXXXXX .XXXXXXXXXXXXXX ",
".XXXXXXXXXXXXXX .XXXXXXXXXXXXXX .XXXXXXXXXXXXXX .XXXXXXXXXXXXXX ",
".XXXXXXXXXXXXXX .XXXXXXXXXXXXXX .XXXXXXXXXXXXXX .XXXXXXXXXXXXXX ",
".XXXXXXXXXXXXXX .XXXXXXXXXXXXXX .XXXXXXXXXXXXXX .XXXXXXXXXXXXXX ",
".XXXXXXXXXXXXXX .XXXXXXXXXXXXXX .XXXXXXXXXXXXXX .XXXXXXXXXXXXXX ",
".XXXXXXXXXXXXXX .XXXXXXXXXXXXXX .XXXXXXXXXXXXXX .XXXXXXXXXXXXXX ",
".X XXXXXXXXXX X .X XXXXXXXXXX X .X XXXXXXXXXX X .X XXXXXXXXXX X ",
".XXXXXXXXXXXXXX .XXXXXXXXXXXXXX .XXXXXXXXXXXXXX .XXXXXXXXXXXXXX ",
"                                                                "
};
