/* XPM */
static char *e3a4d61038b34541a197743cb9363f63gfjUiWyKnP1kPNLS[] = {
/* columns rows colors chars-per-pixel */
"64 64 8 1 ",
"  c #2D1304",
". c #391E0B",
"X c #613D24",
"o c #C68642",
"O c #E0AC69",
"+ c #F1C27D",
"@ c #EAC086",
"# c #C0C0C0",
/* pixels */
"OOOOOoooooooOOOOOOoooooOOO@oOOOOOOOOo@OOOoooooOOOOOOoooooooOOOOO",
"O#OOOOOOOOOOOOOOOOOOOOOOO#@o#O#oo#O#o@#OOOOOOOOOOOOOOOOOOOOOOO#O",
"OOOoOOooooOOoooooOOOOOOOOO@OOOOooOOOO@OOOOOOOOOoooooOOooooOOoOOO",
"O#OoooOOOOOOOOOOOOOOoooOO#@OOOOooOOOO@#OOoooOOOOOOOOOOOOOOoooO#O",
"OOOOOOOOOOooooooOOOOOOOOOO@OOOOOOOOOO@OOOOOOOOOOooooooOOOOOOOOOO",
"@@@@@       ..........@@@@@oOOOOOOOOo@@@@@..........       @@@@@",
"o#O#O       ......XXX@OooO@oOOOOOOOOo@OooO@XXX......       O#O#o",
"oOOOO  .......XXXXXX@OOooO@oOOoOOoOOo@OooOO@XXXXXX.......  OOOOo",
"oOOOO  .......XXXXXX@OOooO@oOOoOOoOOo@OooOO@XXXXXX.......  OOOOo",
"oOOoO ......XXXXXXX@OOOOOO@oOOoOOoOOo@OOOOOO@XXXXXXX...... OoOOo",
"OOOoO.....XXXXXXXX@oOOoOO@.oOOoOOoOOo.@OOoOOo@XXXXXXXX.....OoOOO",
"OOOOO....XXXXXXXXooOOoO@@..OOOoOOoOOO..@@OoOOooXXXXXXXX....OOOOO",
"OOoOO..XXXXXXXXXooOOoo@....OOoOOOOoOO....@ooOOooXXXXXXXXX..OOoOO",
"OOoOOXXXXXXXXXX@OoOOO@....XOOOOOOOOOOX....@OOOoO@XXXXXXXXXXOOoOO",
"OOoOOXXXXXXXXX@OOOOO@....XXOOOOOOOOOOXX....@OOOOO@XXXXXXXXXOOoOO",
"OOoOOXXXXXXXX@OOoOO@...XXXXOoOOOOOOoOXXXX...@OOoOO@XXXXXXXXOOoOO",
"OOoOOXXXXXXX@OOoOO@...XXXXXOoOoOOoOoOXXXXX...@OOoOO@XXXXXXXOOoOO",
"OOOOOXXXXXX@OOOoO@...XXXXXXoOOoOOoOOoXXXXXX...@OoOOO@XXXXXXOOOOO",
"OOOOoXXXXX@OOooO@...XXXXXXXoOOOooOOOoXXXXXXX...@OooOO@XXXXXoOOOO",
"OoOOoXXXX@OOOOO@...XXXXXXXXoOOOOOOOOoXXXXXXXX...@OOOOO@XXXXoOOoO",
"OoOoOXX@@OOOOO@....XXXXXXXXOOOOOOOOOOXXXXXXXX....@OOOOO@@XXOoOoO",
"oOOOOX@OOooOO@....XXXXXXXXXOOOoOOoOOOXXXXXXXXX....@OOooOO@XOOOOo",
"oOOOO@OooOOO@....XXXXXXXXXXOOOoOOoOOOXXXXXXXXXX....@OOOooO@OOOOo",
"OOOoO@OOOOO@....XXXXXXXXXXXOOOOOOOOOOXXXXXXXXXXX....@OOOOO@OoOOO",
"OOOoO@OOOOO@....XXXXXXXXXXXOOOOOOOOOOXXXXXXXXXXX....@OOOOO@OoOOO",
"OOOoO@OOOO@....XXXXXXXXXXXXO#O#OO#O#OXXXXXXXXXXXX....@OOOO@OoOOO",
"OOOoO@@@@@...XXXXXXXXXXXXXX++++++++++XXXXXXXXXXXXXX...@@@@@OoOOO",
"OOOoO@OOOOOOOOOOOOOOOOOoooooOOOOOOOOoooooOOOOOOOOOOOOOOOOO@OoOOO",
"OOOOO@#OOOOoooooooOOOOOOOOOOOO#OO#OOOOOOOOOOOOoooooooOOOO#@OOOOO",
"oOOOo@oOOOOOOOOOOOOooooooooOOOOOOOOOOooooooooOOOOOOOOOOOOo@oOOOo",
"o#O#o@#OOOOOOOOOOOOOOOOOOOOOOO#OO#OOOOOOOOOOOOOOOOOOOOOOO#@o#O#o",
"OOOOo@OOOOOOooooooOOOOOOOOOoooOOOOoooOOOOOOOOOooooooOOOOOO@oOOOO",
"OOOOo@OOOoooooOOOOOOoooooooOOOOOOOOOOoooooooOOOOOOoooooOOO@oOOOO",
"o#O#o@#OOOOOOOOOOOOOOOOOOOOOOO#OO#OOOOOOOOOOOOOOOOOOOOOOO#@o#O#o",
"oOOOO@OOOOOOOOOoooooOOooooOOoOOOOOOoOOooooOOoooooOOOOOOOOO@OOOOo",
"oOOOO@#OOoooOOOOOOOOOOOOOOoooO#OO#OoooOOOOOOOOOOOOOOoooOO#@OOOOo",
"OOOOO@OOOOOOOOOOooooooOOOOOOOOOOOOOOOOOOOOooooooOOOOOOOOOO@OOOOO",
"OOOOo@@@@@..........       @@@@@@@@@@       ..........@@@@@oOOOO",
"OOOOo@OooO@XXX......       O#O#oo#O#O       ......XXX@OooO@oOOOO",
"OoOOo@OooOO@XXXXXX.......  OOOOooOOOO  .......XXXXXX@OOooO@oOOoO",
"OoOOo@OooOO@XXXXXX.......  OOOOooOOOO  .......XXXXXX@OOooO@oOOoO",
"OoOOo@OOOOOO@XXXXXXX...... OoOOooOOoO ......XXXXXXX@OOOOOO@oOOoO",
"OoOOo.@OOoOOo@XXXXXXXX.....OoOOOOOOoO.....XXXXXXXX@oOOoOO@.oOOoO",
"OoOOO..@@OoOOooXXXXXXXX....OOOOOOOOOO....XXXXXXXXooOOoO@@..OOOoO",
"OOoOO....@ooOOooXXXXXXXXX..OOoOOOOoOO..XXXXXXXXXooOOoo@....OOoOO",
"OOOOOX....@OOOoO@XXXXXXXXXXOOoOOOOoOOXXXXXXXXXX@OoOOO@....XOOOOO",
"OOOOOXX....@OOOOO@XXXXXXXXXOOoOOOOoOOXXXXXXXXX@OOOOO@....XXOOOOO",
"OOOoOXXXX...@OOoOO@XXXXXXXXOOoOOOOoOOXXXXXXXX@OOoOO@...XXXXOoOOO",
"OoOoOXXXXX...@OOoOO@XXXXXXXOOoOOOOoOOXXXXXXX@OOoOO@...XXXXXOoOoO",
"OoOOoXXXXXX...@OoOOO@XXXXXXOOOOOOOOOOXXXXXX@OOOoO@...XXXXXXoOOoO",
"oOOOoXXXXXXX...@OooOO@XXXXXoOOOOOOOOoXXXXX@OOooO@...XXXXXXXoOOOo",
"OOOOoXXXXXXXX...@OOOOO@XXXXoOOoOOoOOoXXXX@OOOOO@...XXXXXXXXoOOOO",
"OOOOOXXXXXXXX....@OOOOO@@XXOoOoOOoOoOXX@@OOOOO@....XXXXXXXXOOOOO",
"OoOOOXXXXXXXXX....@OOooOO@XOOOOooOOOOX@OOooOO@....XXXXXXXXXOOOoO",
"OoOOOXXXXXXXXXX....@OOOooO@OOOOooOOOO@OooOOO@....XXXXXXXXXXOOOoO",
"OOOOOXXXXXXXXXXX....@OOOOO@OoOOOOOOoO@OOOOO@....XXXXXXXXXXXOOOOO",
"OOOOOXXXXXXXXXXX....@OOOOO@OoOOOOOOoO@OOOOO@....XXXXXXXXXXXOOOOO",
"O#O#OXXXXXXXXXXXX....@OOOO@OoOOOOOOoO@OOOO@....XXXXXXXXXXXXO#O#O",
"+++++XXXXXXXXXXXXXX...@@@@@OoOOOOOOoO@@@@@...XXXXXXXXXXXXXX+++++",
"OOOOoooooOOOOOOOOOOOOOOOOO@OoOOOOOOoO@OOOOOOOOOOOOOOOOOoooooOOOO",
"O#OOOOOOOOOOOOoooooooOOOO#@OOOOOOOOOO@#OOOOoooooooOOOOOOOOOOOO#O",
"OOOOOooooooooOOOOOOOOOOOOo@oOOOooOOOo@oOOOOOOOOOOOOooooooooOOOOO",
"O#OOOOOOOOOOOOOOOOOOOOOOO#@o#O#oo#O#o@#OOOOOOOOOOOOOOOOOOOOOOO#O",
"OOoooOOOOOOOOOooooooOOOOOO@oOOOOOOOOo@OOOOOOooooooOOOOOOOOOoooOO"
};
